<svg width="63" height="44" viewBox="0 0 63 44" fill="none" xmlns="http://www.w3.org/2000/svg">
<rect x="0.2" y="0.2" width="62.6" height="43.6" fill="white" stroke="#E9E9E9" stroke-width="0.4"/>
<path d="M28.4764 21.572C28.4764 20.196 28.7004 19.124 29.1484 18.356C29.5964 17.58 30.3804 17.192 31.5004 17.192C32.6124 17.192 33.3924 17.58 33.8404 18.356C34.2884 19.124 34.5124 20.196 34.5124 21.572C34.5124 22.972 34.2884 24.06 33.8404 24.836C33.3924 25.612 32.6124 26 31.5004 26C30.3804 26 29.5964 25.612 29.1484 24.836C28.7004 24.06 28.4764 22.972 28.4764 21.572ZM33.4324 21.572C33.4324 20.876 33.3844 20.288 33.2884 19.808C33.2004 19.32 33.0124 18.928 32.7244 18.632C32.4444 18.336 32.0364 18.188 31.5004 18.188C30.9564 18.188 30.5404 18.336 30.2524 18.632C29.9724 18.928 29.7844 19.32 29.6884 19.808C29.6004 20.288 29.5564 20.876 29.5564 21.572C29.5564 22.292 29.6004 22.896 29.6884 23.384C29.7844 23.872 29.9724 24.264 30.2524 24.56C30.5404 24.856 30.9564 25.004 31.5004 25.004C32.0364 25.004 32.4444 24.856 32.7244 24.56C33.0124 24.264 33.2004 23.872 33.2884 23.384C33.3844 22.896 33.4324 22.292 33.4324 21.572Z" fill="#414141" fill-opacity="0.6"/>
</svg>
