<svg width="36" height="36" viewBox="0 0 36 36" fill="none" xmlns="http://www.w3.org/2000/svg">
<circle cx="18" cy="18" r="18" fill="#E9E9E9" fill-opacity="0.55"/>
<path opacity="0.4" d="M23.3917 22.0253L23.7167 24.6586C23.8 25.3503 23.0584 25.8336 22.4667 25.4753L18.975 23.4003C18.5917 23.4003 18.2167 23.3753 17.85 23.3253C18.4667 22.6003 18.8334 21.6836 18.8334 20.692C18.8334 18.3253 16.7834 16.4087 14.25 16.4087C13.2834 16.4087 12.3917 16.6837 11.65 17.167C11.625 16.9587 11.6167 16.7503 11.6167 16.5336C11.6167 12.742 14.9084 9.66699 18.975 9.66699C23.0417 9.66699 26.3334 12.742 26.3334 16.5336C26.3334 18.7836 25.175 20.7753 23.3917 22.0253Z" fill="#FEB402"/>
<path d="M18.8332 20.6915C18.8332 21.6832 18.4665 22.5999 17.8498 23.3249C17.0248 24.3249 15.7165 24.9665 14.2498 24.9665L12.0748 26.2582C11.7082 26.4832 11.2415 26.1748 11.2915 25.7498L11.4998 24.1082C10.3832 23.3332 9.6665 22.0915 9.6665 20.6915C9.6665 19.2248 10.4498 17.9332 11.6498 17.1665C12.3915 16.6832 13.2832 16.4082 14.2498 16.4082C16.7832 16.4082 18.8332 18.3248 18.8332 20.6915Z" fill="#FEB402"/>
</svg>
